<?xml version="1.0" encoding="utf-8"?>
<svg version="1.1" xmlns="http://www.w3.org/2000/svg" xmlns:xlink="http://www.w3.org/1999/xlink" x="0px" y="0px"
	 viewBox="0 0 600 540" enable-background="new 0 0 600 540" xml:space="preserve">
<g id="Logo">
</g>
<g id="Layer_11">
	<path fill="none" stroke="#000000" stroke-width="9" stroke-linecap="round" stroke-linejoin="round" stroke-miterlimit="10" d="
		M220.2,209.4l62,24.8l0,0c10.7,4.2,18.3,14.7,18.3,26.9v0v149.4c0-12.2-7.6-22.7-18.3-26.9l-91.8-36.7h0
		c-10.7-4.2-18.3-14.7-18.3-26.9V76.4c0-12.2-7.6-22.7-18.3-26.9l128.5,51.4v0c10.7,4.2,18.3,14.7,18.3,26.9v80 M447.3,49.5
		l-128.5,51.4l0,0c-10.7,4.2-18.3,14.7-18.3,26.9v80.1 M380.8,209.4l-62,24.8l0,0c-10.7,4.2-18.3,14.7-18.3,26.9v149.4"/>
	<g>
		<path d="M55.7,462.7c4.4,0,7.4,3,7.4,7.4v5.3c0,2.2-0.9,4.2-3.3,5.6c2.6,1.2,3.7,3.4,3.7,5.6v6.1c0,4.4-3,7.4-7.4,7.4H36.8v-37.4
			H55.7z M53.8,477.7c1.3,0,1.8-0.3,1.8-1.8v-4.5c0-1.1-0.6-1.8-1.8-1.8h-9.6v8H53.8z M54.2,493.1c1.1,0,1.8-0.6,1.8-1.8V486
			c0-1.6-0.9-1.7-2.4-1.7h-9.3v8.8H54.2z"/>
		<path d="M106.3,462.7v7.1h-17v7.7h13.8v7.1H89.4v8.5h17v7.1H81.9v-37.4H106.3z"/>
		<path d="M139.8,469.7v30.4h-7.5v-30.4h-9.8v-7h27v7H139.8z"/>
		<path d="M182.2,469.7v30.4h-7.5v-30.4H165v-7h27v7H182.2z"/>
		<path d="M233.2,462.7v7.1h-17v7.7H230v7.1h-13.8v8.5h17v7.1h-24.5v-37.4H233.2z"/>
		<path d="M270.8,500.1l-6-13.9h-6v13.9h-7.5v-37.4h19.1c4.4,0,7.4,3,7.4,7.4v8.8c0,3.5-2,6.2-5.1,7.1l6.2,14.2H270.8z M270.2,471.5
			c0-1.1-0.6-1.8-1.8-1.8h-9.7v9.5h9.7c1.1,0,1.8-0.6,1.8-1.8V471.5z"/>
		<path d="M323.6,462.7h24.5v7.1h-17v8h13.8v7.1h-13.8v15.3h-7.5V462.7z"/>
		<path d="M383.7,462.5c4.4,0,7.4,3,7.4,7.4v23c0,4.4-3,7.4-7.4,7.4h-12.5c-4.4,0-7.4-3-7.4-7.4v-23c0-4.4,3-7.4,7.4-7.4H383.7z
			 M383.6,471.3c0-1.1-0.6-1.8-1.8-1.8h-8.8c-1.1,0-1.8,0.6-1.8,1.8v20.1c0,1.1,0.6,1.8,1.8,1.8h8.8c1.1,0,1.8-0.6,1.8-1.8V471.3z"
			/>
		<path d="M429.4,500.1l-6-13.9h-6v13.9h-7.5v-37.4h19.1c4.4,0,7.4,3,7.4,7.4v8.8c0,3.5-2,6.2-5.1,7.1l6.2,14.2H429.4z M428.8,471.5
			c0-1.1-0.6-1.8-1.8-1.8h-9.7v9.5h9.7c1.1,0,1.8-0.6,1.8-1.8V471.5z"/>
		<path d="M474.3,471.3c0-1.1-0.6-1.8-1.8-1.8h-8.1c-1.1,0-1.8,0.6-1.8,1.8v20.1c0,1.1,0.6,1.8,1.8,1.8h8.1c1.1,0,1.8-0.6,1.8-1.8
			v-4.6h7.5v6c0,4.4-3,7.4-7.4,7.4h-11.8c-4.4,0-7.4-3-7.4-7.4v-23c0-4.4,3-7.4,7.4-7.4h11.8c4.4,0,7.4,3,7.4,7.4v6h-7.5V471.3z"/>
		<path d="M524.3,462.7v7.1h-17v7.7H521v7.1h-13.8v8.5h17v7.1h-24.5v-37.4H524.3z"/>
		<path d="M559.3,471.3c0-1.1-0.6-1.8-1.8-1.8h-7.5c-1.1,0-1.8,0.6-1.8,1.8v3.5c0,1.1,0.6,1.5,1.8,1.8l9.7,2.1
			c4,0.9,7.5,3.3,7.5,7.5v6.7c0,4.4-3,7.4-7.4,7.4h-11.6c-4.4,0-7.4-3-7.4-7.4v-4.8h7.3v3.3c0,1.1,0.6,1.8,1.8,1.8h8.1
			c1.1,0,1.8-0.6,1.8-1.8v-3.9c0-1.1-0.6-1.5-1.8-1.8l-9.7-2.1c-4-0.9-7.5-3.3-7.5-7.5v-6.3c0-4.4,3-7.4,7.4-7.4h11
			c4.4,0,7.4,3,7.4,7.4v4.4h-7.3V471.3z"/>
	</g>
</g>
<g id="mark">
	<g id="mark__x28_working_x29_">
	</g>
	<g id="shape">
	</g>
	<g id="Outlines" display="none">
	</g>
	<g id="cuts" display="none">
	</g>
	<g id="guides_1_">
	</g>
</g>
<g id="Comps">
</g>
<g id="Shape_refinements">
</g>
<g id="Shapes">
</g>
</svg>
